<svg xmlns="http://www.w3.org/2000/svg" viewBox="0 0 141.73 28.41"><title>002_2x</title><rect y="19.9" width="28.35" height="2.83"/><rect y="25.57" width="28.35" height="2.83"/><rect x="28.35" y="22.74" width="28.35" height="2.83"/><rect x="56.69" y="19.9" width="28.35" height="2.83"/><rect x="56.69" y="25.57" width="28.35" height="2.83"/><rect x="85.04" y="22.74" width="28.35" height="2.83"/><rect x="113.39" y="19.9" width="28.35" height="2.83"/><rect x="113.39" y="25.57" width="28.35" height="2.83"/><line x1="0.25" y1="19.9" x2="0.25" y2="18.49" style="fill:none;stroke:#000;stroke-linecap:square;stroke-miterlimit:10;stroke-width:0.5px"/><line x1="28.1" y1="19.92" x2="28.1" y2="18.5" style="fill:none;stroke:#000;stroke-linecap:square;stroke-miterlimit:10;stroke-width:0.5px"/><line x1="56.95" y1="19.9" x2="56.95" y2="18.48" style="fill:none;stroke:#000;stroke-linecap:square;stroke-miterlimit:10;stroke-width:0.5px"/><line x1="84.79" y1="19.91" x2="84.79" y2="18.49" style="fill:none;stroke:#000;stroke-linecap:square;stroke-miterlimit:10;stroke-width:0.5px"/><line x1="113.64" y1="19.93" x2="113.64" y2="18.51" style="fill:none;stroke:#000;stroke-linecap:square;stroke-miterlimit:10;stroke-width:0.5px"/><line x1="141.48" y1="19.95" x2="141.48" y2="18.53" style="fill:none;stroke:#000;stroke-linecap:square;stroke-miterlimit:10;stroke-width:0.5px"/><path d="M25.33,12.75h2.43l-.3.75H25.4l-.3,1.84,1.66-1.11a2.32,2.32,0,0,1,1,.75,1.7,1.7,0,0,1,.33,1,2,2,0,0,1-.47,1.29,2.51,2.51,0,0,1-1.58.8l-1.49-.89.56-.61,1.78,1a1.48,1.48,0,0,0,.37-.42,1.29,1.29,0,0,0,.16-.62,1.55,1.55,0,0,0-.33-1A2.19,2.19,0,0,0,26,14.94l-1.17.78Z"/><path d="M30.35,12.68a2.77,2.77,0,0,1,1.38,1,2.59,2.59,0,0,1,.49,1.58,3,3,0,0,1-.46,1.62,4,4,0,0,1-1.24,1.24,2.53,2.53,0,0,1-1-.5,2.4,2.4,0,0,1-.7-.91,2.79,2.79,0,0,1-.24-1.14,3.12,3.12,0,0,1,.48-1.64A3.22,3.22,0,0,1,30.35,12.68Zm-.68.72a2.15,2.15,0,0,0-.54,1.48A2.6,2.6,0,0,0,29.39,16a2.35,2.35,0,0,0,.75.89,2.25,2.25,0,0,0,1,.43,2.91,2.91,0,0,0,.4-.72,2.22,2.22,0,0,0,.12-.75,2.59,2.59,0,0,0-.23-1.07,2.24,2.24,0,0,0-.69-.86A3.19,3.19,0,0,0,29.67,13.4Z"/><path d="M51.34,13.5l1-.82a1.14,1.14,0,0,1,.53.39,1.09,1.09,0,0,1,.17.64V17a.35.35,0,0,0,0,.2,1.32,1.32,0,0,0,.3.29l.43-.35.13.13-1,.84-.95-.62.26-.35V14.19a1.45,1.45,0,0,0,0-.41.66.66,0,0,0-.19-.3.27.27,0,0,0-.16-.07.4.4,0,0,0-.22.11l-.14.11Z"/><path d="M56.66,12.68a2.77,2.77,0,0,1,1.38,1,2.59,2.59,0,0,1,.49,1.58,3,3,0,0,1-.46,1.62,4,4,0,0,1-1.24,1.24,2.53,2.53,0,0,1-1-.5,2.4,2.4,0,0,1-.7-.91,2.79,2.79,0,0,1-.24-1.14,3.12,3.12,0,0,1,.48-1.64A3.22,3.22,0,0,1,56.66,12.68ZM56,13.4a2.15,2.15,0,0,0-.54,1.48A2.6,2.6,0,0,0,55.7,16a2.35,2.35,0,0,0,.75.89,2.25,2.25,0,0,0,1,.43,2.91,2.91,0,0,0,.4-.72,2.22,2.22,0,0,0,.12-.75,2.59,2.59,0,0,0-.23-1.07,2.24,2.24,0,0,0-.69-.86A3.19,3.19,0,0,0,56,13.4Z"/><path d="M60.74,12.68a2.77,2.77,0,0,1,1.38,1,2.59,2.59,0,0,1,.49,1.58,3,3,0,0,1-.46,1.62,4,4,0,0,1-1.24,1.24,2.53,2.53,0,0,1-1-.5,2.4,2.4,0,0,1-.7-.91A2.79,2.79,0,0,1,59,15.54a3.12,3.12,0,0,1,.48-1.64A3.22,3.22,0,0,1,60.74,12.68Zm-.68.72a2.15,2.15,0,0,0-.54,1.48A2.6,2.6,0,0,0,59.78,16a2.35,2.35,0,0,0,.75.89,2.25,2.25,0,0,0,1,.43,2.91,2.91,0,0,0,.4-.72,2.22,2.22,0,0,0,.12-.75,2.59,2.59,0,0,0-.23-1.07,2.24,2.24,0,0,0-.69-.86A3.19,3.19,0,0,0,60.06,13.4Z"/><path d="M79.44,13.5l1-.82a1.14,1.14,0,0,1,.53.39,1.09,1.09,0,0,1,.17.64V17a.35.35,0,0,0,0,.2,1.32,1.32,0,0,0,.3.29l.43-.35.13.13-1,.84L80,17.47l.26-.35V14.19a1.45,1.45,0,0,0,0-.41.66.66,0,0,0-.19-.3.27.27,0,0,0-.16-.07.4.4,0,0,0-.22.11l-.14.11Z"/><path d="M83.81,12.75h2.43l-.3.75H83.88l-.3,1.84,1.66-1.11a2.32,2.32,0,0,1,1,.75,1.7,1.7,0,0,1,.33,1,2,2,0,0,1-.47,1.29,2.51,2.51,0,0,1-1.58.8L83,17.19l.56-.61,1.78,1a1.48,1.48,0,0,0,.37-.42,1.29,1.29,0,0,0,.16-.62,1.55,1.55,0,0,0-.33-1,2.19,2.19,0,0,0-1.05-.68l-1.17.78Z"/><path d="M88.83,12.68a2.77,2.77,0,0,1,1.38,1,2.59,2.59,0,0,1,.49,1.58,3,3,0,0,1-.46,1.62A4,4,0,0,1,89,18.09a2.53,2.53,0,0,1-1-.5,2.4,2.4,0,0,1-.7-.91,2.79,2.79,0,0,1-.24-1.14,3.12,3.12,0,0,1,.48-1.64A3.22,3.22,0,0,1,88.83,12.68Zm-.68.72a2.15,2.15,0,0,0-.54,1.48A2.6,2.6,0,0,0,87.88,16a2.35,2.35,0,0,0,.75.89,2.25,2.25,0,0,0,1,.43,2.91,2.91,0,0,0,.4-.72,2.22,2.22,0,0,0,.12-.75,2.59,2.59,0,0,0-.23-1.07,2.24,2.24,0,0,0-.69-.86A3.19,3.19,0,0,0,88.16,13.4Z"/><path d="M107.82,13.9l1.63-1.22,1.88,1.13c0,.15,0,.28,0,.38a1.73,1.73,0,0,1-.35,1.09,5.69,5.69,0,0,1-1.57,1.14,5.56,5.56,0,0,0-.77.5,2.13,2.13,0,0,0-.4.46,4.91,4.91,0,0,1,.83-.29,3,3,0,0,1,.7-.08,4.21,4.21,0,0,1,.6,0l.47.09.6.2-.68.74a7.4,7.4,0,0,0-.83-.26,3.17,3.17,0,0,0-.66-.08A3.57,3.57,0,0,0,108,18l-.17.06,0,0a.09.09,0,0,1,0-.06,1.11,1.11,0,0,1,.13-.46,2.93,2.93,0,0,1,.5-.73,6.93,6.93,0,0,1,.75-.68,7.34,7.34,0,0,0,.72-.64,2.48,2.48,0,0,0,.43-.64,1.73,1.73,0,0,0,.15-.71,1.17,1.17,0,0,0-.43-.93l-1.62,1.24Z"/><path d="M113.6,12.68a2.78,2.78,0,0,1,1.38,1,2.59,2.59,0,0,1,.49,1.58,3,3,0,0,1-.46,1.62,4,4,0,0,1-1.24,1.24,2.53,2.53,0,0,1-1-.5,2.4,2.4,0,0,1-.7-.91,2.79,2.79,0,0,1-.24-1.14,3.12,3.12,0,0,1,.48-1.64A3.22,3.22,0,0,1,113.6,12.68Zm-.68.72a2.15,2.15,0,0,0-.54,1.48,2.6,2.6,0,0,0,.26,1.15,2.35,2.35,0,0,0,.75.89,2.25,2.25,0,0,0,1,.43,2.91,2.91,0,0,0,.4-.72,2.22,2.22,0,0,0,.12-.75,2.59,2.59,0,0,0-.23-1.07,2.24,2.24,0,0,0-.69-.86A3.19,3.19,0,0,0,112.93,13.4Z"/><path d="M117.68,12.68a2.78,2.78,0,0,1,1.38,1,2.59,2.59,0,0,1,.49,1.58,3,3,0,0,1-.46,1.62,4,4,0,0,1-1.24,1.24,2.53,2.53,0,0,1-1-.5,2.41,2.41,0,0,1-.7-.91,2.8,2.8,0,0,1-.24-1.14,3.12,3.12,0,0,1,.48-1.64A3.21,3.21,0,0,1,117.68,12.68Zm-.68.72a2.15,2.15,0,0,0-.54,1.48,2.59,2.59,0,0,0,.26,1.15,2.35,2.35,0,0,0,.75.89,2.25,2.25,0,0,0,1,.43,2.91,2.91,0,0,0,.4-.72,2.22,2.22,0,0,0,.12-.75,2.59,2.59,0,0,0-.23-1.07,2.24,2.24,0,0,0-.69-.86A3.2,3.2,0,0,0,117,13.4Z"/><path d="M68.14.42l.15.16a2.12,2.12,0,0,0-.41.58,2,2,0,0,0-.09.69V5.63a1.64,1.64,0,0,0,.1.73.3.3,0,0,0,.26.15.71.71,0,0,0,.38-.22l.14.19L67.5,7.4a1.27,1.27,0,0,1-.58-.5,2.28,2.28,0,0,1-.15-1V1.25L66,.62l-.32.2V3.25h.59L65.63,4V6L66,5.73l.15.16L64.35,7.4a7.1,7.1,0,0,0-.66-.71,2.24,2.24,0,0,0-.44-.29V6.22a.47.47,0,0,0,.3-.25,2,2,0,0,0,.05-.6V4H62.12v2.1a1.88,1.88,0,0,1-.44,1.34,1.51,1.51,0,0,1-1.15.47A4.53,4.53,0,0,1,60,7.84l-.4,0a.5.5,0,0,0-.36.11.52.52,0,0,0-.11.38h-.19a1.36,1.36,0,0,1-.06-.35,1,1,0,0,1,.14-.5.86.86,0,0,1,.37-.34A2,2,0,0,1,60,7a1,1,0,0,0,.69-.3,1,1,0,0,0,.22-.7,1.91,1.91,0,0,0-.33-1.15,1,1,0,0,0-.79-.45.7.7,0,0,0-.59.34L59,4.64a1.73,1.73,0,0,1,.31-.56,1.17,1.17,0,0,1,.47-.31,1.9,1.9,0,0,1,.63-.09c0-.1,0-.17,0-.22a2.7,2.7,0,0,1,.33-1.38,3.26,3.26,0,0,1,1-1,13.94,13.94,0,0,1,2-1.06,1.7,1.7,0,0,1,.63.5,1.43,1.43,0,0,1,.18.72L66.52,0l1.17.87Zm-6.06.73a1.71,1.71,0,0,0-.55.63,3,3,0,0,0-.13,1V5.6a1.89,1.89,0,0,1-.17,1,1.37,1.37,0,0,1-.67.47h.37a1.21,1.21,0,0,0,.59-.12.61.61,0,0,0,.3-.31A2,2,0,0,0,61.9,6V2.28a3.9,3.9,0,0,1,.05-.7A2.46,2.46,0,0,1,62.09,1.15Zm1.52,2.1V1.8A1.63,1.63,0,0,0,63.47,1,1,1,0,0,0,63,.64,2,2,0,0,0,62.5,1a1.27,1.27,0,0,0-.28.48,2.64,2.64,0,0,0-.09.8V3.78l.41-.53ZM65.41,1l-.81.53V3.25h.81Zm0,3H64.6V5.25a2.44,2.44,0,0,0,.09.84q.14.32.38.32a.6.6,0,0,0,.34-.19Z"/><path d="M70.11,2.19l.87.72-.39.37V5.94a1.33,1.33,0,0,0,.07.55c0,.08.1.13.15.13l.1,0,.26-.2.12.15-1,.85a1.47,1.47,0,0,1-.5-.52A2.29,2.29,0,0,1,69.61,6V3.29l-.37-.37ZM70.48.52h.62l-.67,1.05h-.2Z"/><path d="M74.1.4V.53a1.24,1.24,0,0,0-.54.49,1.9,1.9,0,0,0-.16.88V6.24l.56.42.21-.18.12.18-1,.74a5,5,0,0,0-.66-.51,2.61,2.61,0,0,0-.58-.23V6.55a.61.61,0,0,0,.21-.21.86.86,0,0,0,.1-.3s0-.23,0-.59V2a3.7,3.7,0,0,0,0-.62A1,1,0,0,0,72.23,1a1.61,1.61,0,0,0-.35-.35L72,.57a1.7,1.7,0,0,1,.8.52,2.41,2.41,0,0,1,.66-.53A1.71,1.71,0,0,1,74.1.4Z"/><path d="M76.92,2.19,78.3,3.8,76.11,5.33v.89l1.13.45L78,6.15l.11.15L76.53,7.4a6.3,6.3,0,0,0-.8-.37,7.27,7.27,0,0,0-.89-.23V6.67a.49.49,0,0,0,.22-.24,2.12,2.12,0,0,0,.06-.62V3q.46-.17.76-.3Zm-.74.56-.07,0V5l1.29-.9Z"/><path d="M81.29,4l1.13.59V6.65a2.15,2.15,0,0,0-.74.2,3.29,3.29,0,0,0-.75.55,3.07,3.07,0,0,0-.63-.3A1.89,1.89,0,0,0,79.74,7a1.29,1.29,0,0,0-.82.28.4.4,0,0,1-.19.1.19.19,0,0,1-.16-.16s0-.09.1-.16l.2-.23.44-.55.63-.84-1.07-.58V3.07a3.05,3.05,0,0,0,.79-.35,2.46,2.46,0,0,0,.55-.53,9.12,9.12,0,0,0,1,.37,2,2,0,0,0,.52.07.68.68,0,0,0,.43-.12.33.33,0,0,0,.15-.25.25.25,0,0,0-.1-.18A.47.47,0,0,1,82,1.76a.34.34,0,0,1,.08-.24.25.25,0,0,1,.19-.09.32.32,0,0,1,.25.12.48.48,0,0,1,.11.33,1,1,0,0,1-.09.41,2.62,2.62,0,0,1-.34.52Zm-.59.78L79.53,6.36a2.87,2.87,0,0,1,.4-.11,1.86,1.86,0,0,1,.34,0,2.24,2.24,0,0,1,1.17.37V5.18Zm-.84-.44.67.35L81.6,3.27a2.12,2.12,0,0,1-.57.09A2,2,0,0,1,79.86,3Z"/></svg>