<svg xmlns="http://www.w3.org/2000/svg" viewBox="0 0 3.39 46.32"><title>009_1x</title><line x1="1.7" y1="3.04" x2="1.7" y2="36.79" style="fill:none;stroke:#000;stroke-linecap:round;stroke-miterlimit:10;stroke-width:0.25px"/><polygon points="1.7 36.79 2.82 39.04 2.82 45.79 1.7 43.54 0.57 45.79 0.57 39.04 1.7 36.79" style="fill:none;stroke:#000;stroke-linecap:round;stroke-miterlimit:10;stroke-width:0.25px"/><line x1="1.7" y1="36.79" x2="1.7" y2="43.54" style="fill:none;stroke:#000;stroke-linecap:round;stroke-miterlimit:10;stroke-width:0.25px"/><line x1="1.7" y1="39.04" x2="2.82" y2="41.29" style="fill:none;stroke:#000;stroke-linecap:round;stroke-miterlimit:10;stroke-width:0.15000000596046448px"/><line x1="1.7" y1="41.29" x2="2.82" y2="43.54" style="fill:none;stroke:#000;stroke-linecap:round;stroke-miterlimit:10;stroke-width:0.15000000596046448px"/><polygon points="1.7 3.04 2.82 4.17 1.7 0.79 0.57 4.17 1.7 3.04" style="fill:#fff;stroke:#000;stroke-miterlimit:10;stroke-width:0.5px"/><polygon points="1.7 3.04 1.7 0.79 2.82 4.17 1.7 3.04"/><polygon points="1.7 0.79 1.7 3.04 0.57 4.17 1.7 0.79" style="fill:#fff"/><path d="M1.21,21.87v1.37H.79V21.1h.32l1.11,1.4V21.1h.41v2.13H2.3Z"/></svg>