<svg xmlns="http://www.w3.org/2000/svg" viewBox="0 0 4.54 47.64"><title>009_1x</title><line x1="2.27" y1="3.83" x2="2.27" y2="37.58" style="fill:none;stroke:#000;stroke-linecap:round;stroke-miterlimit:10;stroke-width:0.5px"/><polygon points="2.27 37.58 3.39 39.83 3.39 46.58 2.27 44.33 1.14 46.58 1.14 39.83 2.27 37.58" style="fill:none;stroke:#000;stroke-linecap:round;stroke-miterlimit:10;stroke-width:0.5px"/><line x1="2.27" y1="37.58" x2="2.27" y2="44.33" style="fill:none;stroke:#000;stroke-linecap:round;stroke-miterlimit:10;stroke-width:0.5px"/><line x1="2.27" y1="39.83" x2="3.39" y2="42.08" style="fill:none;stroke:#000;stroke-linecap:round;stroke-miterlimit:10;stroke-width:0.25px"/><line x1="2.27" y1="42.08" x2="3.39" y2="44.33" style="fill:none;stroke:#000;stroke-linecap:round;stroke-miterlimit:10;stroke-width:0.25px"/><polygon points="2.27 3.83 3.39 4.96 2.27 1.58 1.14 4.96 2.27 3.83" style="fill:#fff;stroke:#000;stroke-miterlimit:10"/><polygon points="2.27 3.83 2.27 1.58 3.39 4.96 2.27 3.83"/><polygon points="2.27 1.58 2.27 3.83 1.14 4.96 2.27 1.58" style="fill:#fff"/><path d="M1.78,22.66V24H1.37V21.89h.32l1.11,1.4V21.89h.41V24H2.88Z"/></svg>