<svg xmlns="http://www.w3.org/2000/svg" viewBox="0 0 6.79 93.17"><title>009_2x</title><line x1="3.39" y1="6.08" x2="3.39" y2="73.58" style="fill:none;stroke:#000;stroke-linecap:round;stroke-miterlimit:10;stroke-width:0.75px"/><polygon points="3.39 73.58 5.64 78.08 5.64 91.58 3.39 87.08 1.14 91.58 1.14 78.08 3.39 73.58" style="fill:none;stroke:#000;stroke-linecap:round;stroke-miterlimit:10;stroke-width:0.75px"/><line x1="3.39" y1="73.58" x2="3.39" y2="87.08" style="fill:none;stroke:#000;stroke-linecap:round;stroke-miterlimit:10;stroke-width:0.75px"/><line x1="3.39" y1="78.08" x2="5.64" y2="82.58" style="fill:none;stroke:#000;stroke-miterlimit:10;stroke-width:0.75px"/><line x1="3.39" y1="82.58" x2="5.64" y2="87.08" style="fill:none;stroke:#000;stroke-miterlimit:10;stroke-width:0.75px"/><polygon points="3.39 6.08 5.64 8.33 3.39 1.58 1.14 8.33 3.39 6.08" style="fill:#fff;stroke:#000;stroke-miterlimit:10"/><polygon points="3.39 6.08 3.39 1.58 5.64 8.33 3.39 6.08"/><polygon points="3.39 1.58 3.39 6.08 1.14 8.33 3.39 1.58" style="fill:#fff"/><path d="M2.42,43.73v2.73H1.59V42.2h.64L4.45,45V42.21h.83v4.25H4.61Z"/></svg>