<svg xmlns="http://www.w3.org/2000/svg" viewBox="0 0 98.54 15.28"><title>001_1x</title><text transform="translate(0 13.92)" style="font-size:5px;font-family:OpenSans, Open Sans">10</text><text transform="translate(28.35 13.92)" style="font-size:5px;font-family:OpenSans, Open Sans">10</text><text transform="translate(15.6 13.92)" style="font-size:5px;font-family:OpenSans, Open Sans">0</text><text transform="translate(8.52 13.92)" style="font-size:5px;font-family:OpenSans, Open Sans">5</text><text transform="translate(42.52 13.92)" style="font-size:5px;font-family:OpenSans, Open Sans">20</text><text transform="translate(56.69 13.92)" style="font-size:5px;font-family:OpenSans, Open Sans">30</text><text transform="translate(70.87 13.92)" style="font-size:5px;font-family:OpenSans, Open Sans">40</text><text transform="translate(85.04 13.92)" style="font-size:5px;font-family:OpenSans, Open Sans">50</text><text transform="translate(91.26 13.92)" style="font-size:5px;font-family:OpenSans, Open Sans">km</text><line x1="3.11" y1="7.34" x2="87.64" y2="7.34" style="fill:none;stroke:#000;stroke-linecap:round;stroke-miterlimit:10"/><line x1="2.86" y1="4.5" x2="87.9" y2="4.5" style="fill:none;stroke:#000;stroke-miterlimit:10;stroke-width:0.5px"/><line x1="2.86" y1="0.25" x2="2.86" y2="7.34" style="fill:none;stroke:#000;stroke-linecap:round;stroke-miterlimit:10;stroke-width:0.5px"/><line x1="87.9" y1="7.34" x2="87.9" y2="0.25" style="fill:none;stroke:#000;stroke-linecap:round;stroke-miterlimit:10;stroke-width:0.5px"/><line x1="17.03" y1="4.5" x2="17.03" y2="0.25" style="fill:none;stroke:#000;stroke-linecap:round;stroke-miterlimit:10;stroke-width:0.5px"/><line x1="45.38" y1="4.5" x2="45.38" y2="0.25" style="fill:none;stroke:#000;stroke-linecap:round;stroke-miterlimit:10;stroke-width:0.5px"/><line x1="31.2" y1="4.44" x2="31.2" y2="0.25" style="fill:none;stroke:#000;stroke-linecap:round;stroke-miterlimit:10;stroke-width:0.5px"/><line x1="59.55" y1="4.5" x2="59.55" y2="0.25" style="fill:none;stroke:#000;stroke-linecap:round;stroke-miterlimit:10;stroke-width:0.5px"/><line x1="73.72" y1="4.5" x2="73.72" y2="0.25" style="fill:none;stroke:#000;stroke-linecap:round;stroke-miterlimit:10;stroke-width:0.5px"/><line x1="9.95" y1="4.5" x2="9.95" y2="1.67" style="fill:none;stroke:#000;stroke-linecap:round;stroke-miterlimit:10;stroke-width:0.5px"/><line x1="11.36" y1="4.5" x2="11.36" y2="3.08" style="fill:none;stroke:#000;stroke-linecap:round;stroke-miterlimit:10;stroke-width:0.5px"/><line x1="12.78" y1="4.5" x2="12.78" y2="3.08" style="fill:none;stroke:#000;stroke-linecap:round;stroke-miterlimit:10;stroke-width:0.5px"/><line x1="14.2" y1="4.5" x2="14.2" y2="3.08" style="fill:none;stroke:#000;stroke-linecap:round;stroke-miterlimit:10;stroke-width:0.5px"/><line x1="15.61" y1="4.5" x2="15.61" y2="3.08" style="fill:none;stroke:#000;stroke-linecap:round;stroke-miterlimit:10;stroke-width:0.5px"/><line x1="4.28" y1="4.5" x2="4.28" y2="3.08" style="fill:none;stroke:#000;stroke-linecap:round;stroke-miterlimit:10;stroke-width:0.5px"/><line x1="5.69" y1="4.5" x2="5.69" y2="3.08" style="fill:none;stroke:#000;stroke-linecap:round;stroke-miterlimit:10;stroke-width:0.5px"/><line x1="7.11" y1="4.5" x2="7.11" y2="3.08" style="fill:none;stroke:#000;stroke-linecap:round;stroke-miterlimit:10;stroke-width:0.5px"/><line x1="8.53" y1="4.5" x2="8.53" y2="3.08" style="fill:none;stroke:#000;stroke-linecap:round;stroke-miterlimit:10;stroke-width:0.5px"/></svg>