<svg xmlns="http://www.w3.org/2000/svg" viewBox="0 0 97.68 13.97"><title>001_1x</title><path d="M1.29,13.92H.89V11.38q0-.32,0-.6l-.11.11-.58.48L0,11.08l.94-.73h.34Z"/><path d="M5,12.13a2.6,2.6,0,0,1-.29,1.38,1,1,0,0,1-.89.46,1,1,0,0,1-.88-.47,2.55,2.55,0,0,1-.3-1.37,2.6,2.6,0,0,1,.29-1.38,1,1,0,0,1,.89-.45,1,1,0,0,1,.88.47A2.55,2.55,0,0,1,5,12.13Zm-2,0a2.62,2.62,0,0,0,.18,1.13.61.61,0,0,0,.58.35.61.61,0,0,0,.59-.36,2.63,2.63,0,0,0,.18-1.13A2.61,2.61,0,0,0,4.41,11a.61.61,0,0,0-.59-.36.61.61,0,0,0-.58.35A2.6,2.6,0,0,0,3.06,12.13Z"/><path d="M29.63,13.92h-.4V11.38q0-.32,0-.6l-.11.11-.58.48-.21-.28.94-.73h.34Z"/><path d="M33.36,12.13a2.6,2.6,0,0,1-.29,1.38,1.08,1.08,0,0,1-1.77,0,2.55,2.55,0,0,1-.3-1.37,2.6,2.6,0,0,1,.29-1.38,1.08,1.08,0,0,1,1.77,0A2.55,2.55,0,0,1,33.36,12.13Zm-2,0a2.62,2.62,0,0,0,.18,1.13.66.66,0,0,0,1.17,0,2.63,2.63,0,0,0,.18-1.13A2.61,2.61,0,0,0,32.76,11a.66.66,0,0,0-1.17,0A2.6,2.6,0,0,0,31.41,12.13Z"/><path d="M17.75,12.13a2.6,2.6,0,0,1-.29,1.38,1.08,1.08,0,0,1-1.77,0,2.55,2.55,0,0,1-.3-1.37,2.6,2.6,0,0,1,.29-1.38,1.08,1.08,0,0,1,1.77,0A2.55,2.55,0,0,1,17.75,12.13Zm-2,0A2.62,2.62,0,0,0,16,13.27a.66.66,0,0,0,1.17,0,2.63,2.63,0,0,0,.18-1.13A2.61,2.61,0,0,0,17.16,11,.66.66,0,0,0,16,11,2.6,2.6,0,0,0,15.8,12.13Z"/><path d="M9.42,11.74a1.31,1.31,0,0,1,.89.28,1,1,0,0,1,.32.77,1.11,1.11,0,0,1-.35.87,1.41,1.41,0,0,1-1,.31,1.79,1.79,0,0,1-.92-.19v-.39a1.38,1.38,0,0,0,.42.17,2.12,2.12,0,0,0,.5.06,1,1,0,0,0,.67-.2.73.73,0,0,0,.24-.59q0-.75-.92-.75a3.67,3.67,0,0,0-.62.07L8.47,12l.13-1.67h1.77v.37H8.95L8.86,11.8A2.87,2.87,0,0,1,9.42,11.74Z"/><path d="M44.65,13.92H42.3v-.35l.94-.94a6.92,6.92,0,0,0,.57-.62,1.58,1.58,0,0,0,.21-.36,1,1,0,0,0,.07-.38.6.6,0,0,0-.17-.45.66.66,0,0,0-.48-.17,1.21,1.21,0,0,0-.42.07,1.67,1.67,0,0,0-.44.27l-.21-.28a1.65,1.65,0,0,1,1.07-.41,1.13,1.13,0,0,1,.79.26.89.89,0,0,1,.29.69,1.33,1.33,0,0,1-.19.67,4.24,4.24,0,0,1-.71.84l-.78.76v0h1.84Z"/><path d="M47.53,12.13a2.6,2.6,0,0,1-.29,1.38,1.08,1.08,0,0,1-1.77,0,2.55,2.55,0,0,1-.3-1.37,2.6,2.6,0,0,1,.29-1.38,1.08,1.08,0,0,1,1.77,0A2.55,2.55,0,0,1,47.53,12.13Zm-2,0a2.62,2.62,0,0,0,.18,1.13.66.66,0,0,0,1.17,0,2.64,2.64,0,0,0,.18-1.13A2.62,2.62,0,0,0,46.93,11a.66.66,0,0,0-1.17,0A2.6,2.6,0,0,0,45.58,12.13Z"/><path d="M58.69,11.19a.82.82,0,0,1-.19.56A1,1,0,0,1,58,12v0a1,1,0,0,1,.64.27.8.8,0,0,1,.21.58.94.94,0,0,1-.35.79,1.61,1.61,0,0,1-1,.27,2.93,2.93,0,0,1-.52,0,1.75,1.75,0,0,1-.46-.15v-.38a2.36,2.36,0,0,0,1,.23q.93,0,.93-.73t-1-.65H57V11.9h.36a1.07,1.07,0,0,0,.66-.18.61.61,0,0,0,.24-.51.5.5,0,0,0-.18-.41.74.74,0,0,0-.49-.15,1.51,1.51,0,0,0-.44.06,2,2,0,0,0-.47.23l-.21-.27A1.7,1.7,0,0,1,57,10.4a1.83,1.83,0,0,1,.6-.1,1.24,1.24,0,0,1,.81.24A.8.8,0,0,1,58.69,11.19Z"/><path d="M61.7,12.13a2.6,2.6,0,0,1-.29,1.38,1.08,1.08,0,0,1-1.77,0,2.56,2.56,0,0,1-.3-1.37,2.61,2.61,0,0,1,.29-1.38,1.08,1.08,0,0,1,1.77,0A2.55,2.55,0,0,1,61.7,12.13Zm-2,0a2.63,2.63,0,0,0,.18,1.13.66.66,0,0,0,1.17,0,2.64,2.64,0,0,0,.18-1.13A2.62,2.62,0,0,0,61.1,11a.66.66,0,0,0-1.17,0A2.61,2.61,0,0,0,59.75,12.13Z"/><path d="M73.17,13.1h-.53v.82h-.39V13.1H70.51v-.35l1.69-2.42h.43v2.4h.53Zm-.92-.37V11.55q0-.35,0-.79h0a3.78,3.78,0,0,1-.22.39l-1.12,1.59Z"/><path d="M75.88,12.13a2.6,2.6,0,0,1-.29,1.38,1.08,1.08,0,0,1-1.77,0,2.56,2.56,0,0,1-.3-1.37,2.61,2.61,0,0,1,.29-1.38,1.08,1.08,0,0,1,1.77,0A2.55,2.55,0,0,1,75.88,12.13Zm-2,0a2.63,2.63,0,0,0,.18,1.13.66.66,0,0,0,1.17,0,2.64,2.64,0,0,0,.18-1.13A2.62,2.62,0,0,0,75.28,11a.66.66,0,0,0-1.17,0A2.61,2.61,0,0,0,73.93,12.13Z"/><path d="M85.94,11.74a1.31,1.31,0,0,1,.89.28,1,1,0,0,1,.32.77,1.11,1.11,0,0,1-.35.87,1.41,1.41,0,0,1-1,.31,1.79,1.79,0,0,1-.92-.19v-.39a1.39,1.39,0,0,0,.43.17,2.12,2.12,0,0,0,.5.06,1,1,0,0,0,.67-.2.73.73,0,0,0,.24-.59q0-.75-.92-.75a3.67,3.67,0,0,0-.62.07L85,12l.13-1.67H86.9v.37H85.47l-.09,1.07A2.87,2.87,0,0,1,85.94,11.74Z"/><path d="M90,12.13a2.6,2.6,0,0,1-.29,1.38,1.08,1.08,0,0,1-1.77,0,2.56,2.56,0,0,1-.3-1.37A2.61,2.61,0,0,1,88,10.75a1.08,1.08,0,0,1,1.77,0A2.55,2.55,0,0,1,90,12.13Zm-2,0a2.63,2.63,0,0,0,.18,1.13.66.66,0,0,0,1.17,0,2.64,2.64,0,0,0,.18-1.13A2.62,2.62,0,0,0,89.45,11a.66.66,0,0,0-1.17,0A2.61,2.61,0,0,0,88.1,12.13Z"/><path d="M91.64,12.55a4.58,4.58,0,0,1,.32-.39l.86-.92h.48l-1.08,1.14,1.16,1.54h-.49l-.95-1.26-.3.26v1h-.4v-3.8h.4v2c0,.09,0,.23,0,.42Z"/><path d="M97.27,13.92V12.18a.72.72,0,0,0-.14-.48.53.53,0,0,0-.42-.16.69.69,0,0,0-.56.22,1,1,0,0,0-.18.67v1.49h-.41V12.18a.73.73,0,0,0-.14-.48.53.53,0,0,0-.43-.16.66.66,0,0,0-.56.23,1.24,1.24,0,0,0-.18.75v1.4h-.41V11.25h.33l.07.37h0a.81.81,0,0,1,.32-.31,1,1,0,0,1,.47-.11.8.8,0,0,1,.82.45h0a.86.86,0,0,1,.35-.33,1.08,1.08,0,0,1,.52-.12.91.91,0,0,1,.68.23,1,1,0,0,1,.23.75v1.75Z"/><line x1="2.65" y1="7.34" x2="87.18" y2="7.34" style="fill:none;stroke:#000;stroke-linecap:round;stroke-miterlimit:10"/><line x1="2.4" y1="4.5" x2="87.44" y2="4.5" style="fill:none;stroke:#000;stroke-miterlimit:10;stroke-width:0.5px"/><line x1="2.4" y1="0.25" x2="2.4" y2="7.34" style="fill:none;stroke:#000;stroke-linecap:round;stroke-miterlimit:10;stroke-width:0.5px"/><line x1="87.44" y1="7.34" x2="87.44" y2="0.25" style="fill:none;stroke:#000;stroke-linecap:round;stroke-miterlimit:10;stroke-width:0.5px"/><line x1="16.57" y1="4.5" x2="16.57" y2="0.25" style="fill:none;stroke:#000;stroke-linecap:round;stroke-miterlimit:10;stroke-width:0.5px"/><line x1="44.92" y1="4.5" x2="44.92" y2="0.25" style="fill:none;stroke:#000;stroke-linecap:round;stroke-miterlimit:10;stroke-width:0.5px"/><line x1="30.75" y1="4.44" x2="30.75" y2="0.25" style="fill:none;stroke:#000;stroke-linecap:round;stroke-miterlimit:10;stroke-width:0.5px"/><line x1="59.09" y1="4.5" x2="59.09" y2="0.25" style="fill:none;stroke:#000;stroke-linecap:round;stroke-miterlimit:10;stroke-width:0.5px"/><line x1="73.27" y1="4.5" x2="73.27" y2="0.25" style="fill:none;stroke:#000;stroke-linecap:round;stroke-miterlimit:10;stroke-width:0.5px"/><line x1="9.49" y1="4.5" x2="9.49" y2="1.67" style="fill:none;stroke:#000;stroke-linecap:round;stroke-miterlimit:10;stroke-width:0.5px"/><line x1="10.9" y1="4.5" x2="10.9" y2="3.08" style="fill:none;stroke:#000;stroke-linecap:round;stroke-miterlimit:10;stroke-width:0.5px"/><line x1="12.32" y1="4.5" x2="12.32" y2="3.08" style="fill:none;stroke:#000;stroke-linecap:round;stroke-miterlimit:10;stroke-width:0.5px"/><line x1="13.74" y1="4.5" x2="13.74" y2="3.08" style="fill:none;stroke:#000;stroke-linecap:round;stroke-miterlimit:10;stroke-width:0.5px"/><line x1="15.16" y1="4.5" x2="15.16" y2="3.08" style="fill:none;stroke:#000;stroke-linecap:round;stroke-miterlimit:10;stroke-width:0.5px"/><line x1="3.82" y1="4.5" x2="3.82" y2="3.08" style="fill:none;stroke:#000;stroke-linecap:round;stroke-miterlimit:10;stroke-width:0.5px"/><line x1="5.23" y1="4.5" x2="5.23" y2="3.08" style="fill:none;stroke:#000;stroke-linecap:round;stroke-miterlimit:10;stroke-width:0.5px"/><line x1="6.65" y1="4.5" x2="6.65" y2="3.08" style="fill:none;stroke:#000;stroke-linecap:round;stroke-miterlimit:10;stroke-width:0.5px"/><line x1="8.07" y1="4.5" x2="8.07" y2="3.08" style="fill:none;stroke:#000;stroke-linecap:round;stroke-miterlimit:10;stroke-width:0.5px"/></svg>