<svg xmlns="http://www.w3.org/2000/svg" viewBox="0 0 185.34 21.98"><title>001_2x</title><path d="M1.54,21.93H1.07V18.87q0-.38,0-.72L1,18.28l-.7.57L0,18.52l1.13-.88h.41Z"/><path d="M6,19.78a3.13,3.13,0,0,1-.35,1.66A1.18,1.18,0,0,1,4.59,22a1.17,1.17,0,0,1-1.05-.56,3.07,3.07,0,0,1-.36-1.65,3.13,3.13,0,0,1,.35-1.66,1.18,1.18,0,0,1,1.06-.54,1.18,1.18,0,0,1,1.06.57A3.05,3.05,0,0,1,6,19.78Zm-2.34,0a3.14,3.14,0,0,0,.22,1.36.73.73,0,0,0,.7.43.74.74,0,0,0,.7-.43,3.16,3.16,0,0,0,.22-1.35,3.14,3.14,0,0,0-.22-1.35.74.74,0,0,0-.7-.43.74.74,0,0,0-.7.42A3.12,3.12,0,0,0,3.67,19.78Z"/><path d="M58.24,21.93h-.47V18.87q0-.38,0-.72l-.14.13-.7.57-.26-.33,1.13-.88h.41Z"/><path d="M62.71,19.78a3.13,3.13,0,0,1-.35,1.66,1.29,1.29,0,0,1-2.12,0,3.07,3.07,0,0,1-.36-1.65,3.13,3.13,0,0,1,.35-1.66,1.29,1.29,0,0,1,2.12,0A3.05,3.05,0,0,1,62.71,19.78Zm-2.34,0a3.14,3.14,0,0,0,.22,1.36.79.79,0,0,0,1.4,0,3.16,3.16,0,0,0,.22-1.35A3.14,3.14,0,0,0,62,18.43a.79.79,0,0,0-1.4,0A3.12,3.12,0,0,0,60.36,19.78Z"/><path d="M32.64,19.78a3.13,3.13,0,0,1-.35,1.66,1.29,1.29,0,0,1-2.12,0,3.07,3.07,0,0,1-.36-1.65,3.13,3.13,0,0,1,.35-1.66,1.29,1.29,0,0,1,2.12,0A3.05,3.05,0,0,1,32.64,19.78Zm-2.34,0a3.14,3.14,0,0,0,.22,1.36.79.79,0,0,0,1.4,0,3.16,3.16,0,0,0,.22-1.35,3.14,3.14,0,0,0-.22-1.35.79.79,0,0,0-1.4,0A3.12,3.12,0,0,0,30.3,19.78Z"/><path d="M17,19.31a1.57,1.57,0,0,1,1.06.34,1.15,1.15,0,0,1,.39.92,1.33,1.33,0,0,1-.42,1,1.69,1.69,0,0,1-1.17.38,2.15,2.15,0,0,1-1.1-.23v-.47a1.68,1.68,0,0,0,.51.21,2.52,2.52,0,0,0,.6.07,1.2,1.2,0,0,0,.8-.24.87.87,0,0,0,.29-.7q0-.9-1.1-.9a4.37,4.37,0,0,0-.74.08l-.25-.16.16-2h2.13v.45H16.41l-.11,1.29A3.41,3.41,0,0,1,17,19.31Z"/><path d="M87.6,21.93H84.78v-.42l1.13-1.13a8.31,8.31,0,0,0,.68-.74,1.9,1.9,0,0,0,.25-.43,1.24,1.24,0,0,0,.08-.45.72.72,0,0,0-.21-.54.8.8,0,0,0-.58-.2,1.45,1.45,0,0,0-.51.09,2,2,0,0,0-.53.32l-.26-.33a2,2,0,0,1,1.29-.49,1.36,1.36,0,0,1,.95.31,1.06,1.06,0,0,1,.34.83,1.6,1.6,0,0,1-.23.81,5.12,5.12,0,0,1-.86,1l-.94.92v0h2.2Z"/><path d="M91.05,19.78a3.13,3.13,0,0,1-.35,1.66,1.29,1.29,0,0,1-2.12,0,3.07,3.07,0,0,1-.36-1.65,3.13,3.13,0,0,1,.35-1.66,1.29,1.29,0,0,1,2.12,0A3.05,3.05,0,0,1,91.05,19.78Zm-2.34,0a3.14,3.14,0,0,0,.22,1.36.79.79,0,0,0,1.4,0,3.16,3.16,0,0,0,.22-1.35,3.14,3.14,0,0,0-.22-1.35.79.79,0,0,0-1.4,0A3.12,3.12,0,0,0,88.71,19.78Z"/><path d="M115.78,18.65a1,1,0,0,1-.23.67,1.15,1.15,0,0,1-.65.35v0a1.23,1.23,0,0,1,.76.33,1,1,0,0,1,.25.69,1.12,1.12,0,0,1-.42.94,1.93,1.93,0,0,1-1.21.33,3.5,3.5,0,0,1-.62-.05,2.13,2.13,0,0,1-.55-.18v-.46a2.8,2.8,0,0,0,1.19.28q1.11,0,1.11-.87t-1.22-.78h-.42V19.5h.43a1.29,1.29,0,0,0,.79-.22.73.73,0,0,0,.29-.61.61.61,0,0,0-.22-.49.89.89,0,0,0-.58-.18,1.8,1.8,0,0,0-.53.08,2.37,2.37,0,0,0-.57.28l-.25-.33a2,2,0,0,1,.61-.33,2.21,2.21,0,0,1,.73-.12,1.48,1.48,0,0,1,1,.29A1,1,0,0,1,115.78,18.65Z"/><path d="M119.4,19.78a3.13,3.13,0,0,1-.35,1.66,1.29,1.29,0,0,1-2.12,0,3.07,3.07,0,0,1-.36-1.65,3.13,3.13,0,0,1,.35-1.66,1.29,1.29,0,0,1,2.12,0A3.05,3.05,0,0,1,119.4,19.78Zm-2.34,0a3.14,3.14,0,0,0,.22,1.36.79.79,0,0,0,1.4,0,3.16,3.16,0,0,0,.22-1.35,3.14,3.14,0,0,0-.22-1.35.79.79,0,0,0-1.4,0A3.12,3.12,0,0,0,117.06,19.78Z"/><path d="M144.49,20.94h-.64v1h-.47v-1h-2.08v-.42l2-2.9h.52V20.5h.64Zm-1.1-.44V19.08q0-.42,0-.95h0a4.4,4.4,0,0,1-.26.47l-1.34,1.9Z"/><path d="M147.74,19.78a3.13,3.13,0,0,1-.35,1.66,1.29,1.29,0,0,1-2.12,0,3.07,3.07,0,0,1-.36-1.65,3.13,3.13,0,0,1,.35-1.66,1.29,1.29,0,0,1,2.12,0A3.05,3.05,0,0,1,147.74,19.78Zm-2.34,0a3.14,3.14,0,0,0,.22,1.36.79.79,0,0,0,1.4,0,3.16,3.16,0,0,0,.22-1.35,3.14,3.14,0,0,0-.22-1.35.79.79,0,0,0-1.4,0A3.12,3.12,0,0,0,145.4,19.78Z"/><path d="M171.16,19.31a1.58,1.58,0,0,1,1.07.34,1.15,1.15,0,0,1,.39.92,1.33,1.33,0,0,1-.42,1A1.69,1.69,0,0,1,171,22a2.15,2.15,0,0,1-1.1-.23v-.47a1.68,1.68,0,0,0,.51.21,2.52,2.52,0,0,0,.6.07,1.2,1.2,0,0,0,.8-.24.87.87,0,0,0,.29-.7q0-.9-1.1-.9a4.37,4.37,0,0,0-.74.08l-.25-.16.16-2h2.13v.45H170.6l-.11,1.29A3.41,3.41,0,0,1,171.16,19.31Z"/><path d="M176.09,19.78a3.13,3.13,0,0,1-.35,1.66,1.29,1.29,0,0,1-2.12,0,3.07,3.07,0,0,1-.36-1.65,3.13,3.13,0,0,1,.35-1.66,1.29,1.29,0,0,1,2.12,0A3.05,3.05,0,0,1,176.09,19.78Zm-2.34,0a3.14,3.14,0,0,0,.22,1.36.79.79,0,0,0,1.41,0,3.16,3.16,0,0,0,.22-1.35,3.14,3.14,0,0,0-.22-1.35.79.79,0,0,0-1.41,0A3.12,3.12,0,0,0,173.75,19.78Z"/><path d="M178.09,20.28a5.72,5.72,0,0,1,.38-.47l1-1.1h.58l-1.3,1.37,1.39,1.84h-.59l-1.13-1.52-.37.32v1.2h-.48V17.37h.48v2.42q0,.16,0,.5Z"/><path d="M184.85,21.93V19.84a.87.87,0,0,0-.16-.58.63.63,0,0,0-.51-.19.82.82,0,0,0-.67.26,1.24,1.24,0,0,0-.22.8v1.79h-.49V19.84a.87.87,0,0,0-.16-.58.64.64,0,0,0-.51-.19.79.79,0,0,0-.67.27,1.48,1.48,0,0,0-.21.9v1.68h-.49V18.72h.4l.08.44h0a1,1,0,0,1,.39-.37,1.18,1.18,0,0,1,.56-.13,1,1,0,0,1,1,.54h0a1,1,0,0,1,.42-.4,1.29,1.29,0,0,1,.62-.15,1.09,1.09,0,0,1,.82.28,1.25,1.25,0,0,1,.27.9v2.09Z"/><line x1="3.39" y1="14.42" x2="172.45" y2="14.42" style="fill:none;stroke:#000;stroke-linecap:round;stroke-miterlimit:10;stroke-width:1.5px"/><line x1="2.88" y1="8.75" x2="172.96" y2="8.75" style="fill:none;stroke:#000;stroke-miterlimit:10;stroke-width:0.5px"/><line x1="2.88" y1="0.25" x2="2.88" y2="14.42" style="fill:none;stroke:#000;stroke-linecap:round;stroke-miterlimit:10;stroke-width:0.5px"/><line x1="172.96" y1="14.42" x2="172.96" y2="0.25" style="fill:none;stroke:#000;stroke-linecap:round;stroke-miterlimit:10;stroke-width:0.5px"/><line x1="31.23" y1="8.75" x2="31.23" y2="0.25" style="fill:none;stroke:#000;stroke-linecap:round;stroke-miterlimit:10;stroke-width:0.5px"/><line x1="87.92" y1="8.75" x2="87.92" y2="0.25" style="fill:none;stroke:#000;stroke-linecap:round;stroke-miterlimit:10;stroke-width:0.5px"/><line x1="59.57" y1="8.62" x2="59.57" y2="0.25" style="fill:none;stroke:#000;stroke-linecap:round;stroke-miterlimit:10;stroke-width:0.5px"/><line x1="116.27" y1="8.75" x2="116.27" y2="0.25" style="fill:none;stroke:#000;stroke-linecap:round;stroke-miterlimit:10;stroke-width:0.5px"/><line x1="144.61" y1="8.75" x2="144.61" y2="0.25" style="fill:none;stroke:#000;stroke-linecap:round;stroke-miterlimit:10;stroke-width:0.5px"/><line x1="17.05" y1="8.75" x2="17.05" y2="3.08" style="fill:none;stroke:#000;stroke-linecap:round;stroke-miterlimit:10;stroke-width:0.5px"/><line x1="19.89" y1="8.75" x2="19.89" y2="5.92" style="fill:none;stroke:#000;stroke-linecap:round;stroke-miterlimit:10;stroke-width:0.5px"/><line x1="22.72" y1="8.75" x2="22.72" y2="5.92" style="fill:none;stroke:#000;stroke-linecap:round;stroke-miterlimit:10;stroke-width:0.5px"/><line x1="25.56" y1="8.75" x2="25.56" y2="5.92" style="fill:none;stroke:#000;stroke-linecap:round;stroke-miterlimit:10;stroke-width:0.5px"/><line x1="28.39" y1="8.75" x2="28.39" y2="5.92" style="fill:none;stroke:#000;stroke-linecap:round;stroke-miterlimit:10;stroke-width:0.5px"/><line x1="5.71" y1="8.75" x2="5.71" y2="5.92" style="fill:none;stroke:#000;stroke-linecap:round;stroke-miterlimit:10;stroke-width:0.5px"/><line x1="8.55" y1="8.75" x2="8.55" y2="5.92" style="fill:none;stroke:#000;stroke-linecap:round;stroke-miterlimit:10;stroke-width:0.5px"/><line x1="11.38" y1="8.75" x2="11.38" y2="5.92" style="fill:none;stroke:#000;stroke-linecap:round;stroke-miterlimit:10;stroke-width:0.5px"/><line x1="14.22" y1="8.75" x2="14.22" y2="5.92" style="fill:none;stroke:#000;stroke-linecap:round;stroke-miterlimit:10;stroke-width:0.5px"/></svg>