<svg xmlns="http://www.w3.org/2000/svg" viewBox="0 0 62.88 62.47"><title>Artboard 11x</title><circle cx="32.53" cy="31.2" r="27.27" style="fill:none;stroke:#000;stroke-miterlimit:10;stroke-width:0.30000001192092896px"/><circle cx="32.53" cy="31.2" r="25.91" style="fill:none;stroke:#000;stroke-miterlimit:10;stroke-width:0.25px"/><circle cx="41.86" cy="6.3" r="0.36"/><circle cx="51.33" cy="12.4" r="0.36"/><circle cx="57.43" cy="21.86" r="0.36"/><circle cx="57.42" cy="40.54" r="0.36"/><circle cx="51.32" cy="50" r="0.36"/><circle cx="41.86" cy="56.09" r="0.36"/><circle cx="23.19" cy="56.1" r="0.36"/><circle cx="13.72" cy="50" r="0.36"/><circle cx="7.62" cy="40.54" r="0.36"/><circle cx="7.62" cy="21.86" r="0.36"/><circle cx="13.72" cy="12.39" r="0.36"/><circle cx="23.19" cy="6.3" r="0.36"/><polygon points="50.53 13.2 32.53 31.2 41.53 31.2 50.53 13.2"/><polygon points="50.53 49.2 32.53 31.2 32.53 40.2 50.53 49.2"/><polygon points="14.53 49.2 32.53 31.2 23.53 31.2 14.53 49.2"/><polygon points="14.53 13.2 32.53 31.2 32.53 22.2 14.53 13.2"/><polygon points="50.53 13.2 32.53 31.2 32.53 22.2 50.53 13.2" style="fill:#fff"/><polygon points="50.53 49.2 32.53 31.2 41.53 31.2 50.53 49.2" style="fill:#fff"/><polygon points="14.53 49.2 32.53 31.2 32.53 40.2 14.53 49.2" style="fill:#fff"/><polygon points="14.53 13.2 32.53 31.2 23.53 31.2 14.53 13.2" style="fill:#fff"/><polygon points="32.53 4.2 39.28 24.45 32.53 31.2 32.53 4.2"/><polygon points="59.53 31.2 39.28 37.95 32.53 31.2 59.53 31.2"/><polygon points="32.53 58.2 25.78 37.95 32.53 31.2 32.53 58.2"/><polygon points="5.53 31.2 25.78 24.45 32.53 31.2 5.53 31.2"/><polygon points="32.53 4.2 32.53 31.2 25.78 24.45 32.53 4.2" style="fill:#fff"/><polygon points="59.53 31.2 32.53 31.2 39.28 24.45 59.53 31.2" style="fill:#fff"/><polygon points="32.53 58.2 32.53 31.2 39.28 37.95 32.53 58.2" style="fill:#fff"/><polygon points="5.53 31.2 32.53 31.2 25.78 37.95 5.53 31.2" style="fill:#fff"/><path d="M32.53,58.6l-5.1-15.7L14.25,49.48l6.53-13.06L5.13,31.2l15.7-5.1L14.25,12.92l13.06,6.53L32.53,3.81l5.1,15.7L50.8,12.92,44.27,26,59.92,31.2l-15.7,5.1L50.8,49.48,37.74,42.95ZM27.38,42.77h0L32.53,58.2l5.14-15.43L50.53,49.2,44.11,36.34h0L59.53,31.2,44.1,26.06,50.53,13.2,37.67,19.63h0L32.53,4.2,27.38,19.63,14.53,13.2,21,26.06,5.53,31.2,21,36.34,14.53,49.2Z"/><path d="M31.85,1V2.84h-.55V0h.43L33.2,1.86V0h.55V2.84h-.45Z"/><path d="M62.88,32.16v.48h-2V29.8h1.94v.48H61.46V31h1.2v.45h-1.2v.74Z"/><path d="M33.29,60.34l-.1-.08L33,60.17l-.23-.08a1,1,0,0,0-.25,0,.57.57,0,0,0-.34.08.28.28,0,0,0-.11.24.24.24,0,0,0,0,.15.35.35,0,0,0,.12.1l.2.08.28.08.38.12a1.05,1.05,0,0,1,.29.16.65.65,0,0,1,.18.23.76.76,0,0,1,.06.33.82.82,0,0,1-.09.39.72.72,0,0,1-.23.26,1,1,0,0,1-.34.15,1.7,1.7,0,0,1-.4,0,2.12,2.12,0,0,1-.63-.1,1.94,1.94,0,0,1-.56-.27l.24-.48.13.09.22.12.28.1a1.3,1.3,0,0,0,.32,0q.46,0,.46-.29a.24.24,0,0,0-.05-.16.44.44,0,0,0-.15-.11l-.23-.09-.3-.09L32,61.11a.93.93,0,0,1-.25-.16.58.58,0,0,1-.15-.21.73.73,0,0,1,0-.28.87.87,0,0,1,.08-.38.76.76,0,0,1,.22-.28,1,1,0,0,1,.33-.17,1.35,1.35,0,0,1,.4-.06,1.55,1.55,0,0,1,.55.09,2.08,2.08,0,0,1,.44.22Z"/><path d="M1.28,29.81h.51l.32.94.32-.94h.51L2.45,31.1l.36.91.8-2.21h.6L3.06,32.64H2.6L2.1,31.45l-.49,1.19H1.15L0,29.8H.59L1.4,32l.35-.91Z"/></svg>