<svg xmlns="http://www.w3.org/2000/svg" viewBox="0 0 125.75 124.93"><title>0082x</title><circle cx="65.05" cy="62.4" r="54.54" style="fill:none;stroke:#000;stroke-miterlimit:10;stroke-width:0.30000001192092896px"/><circle cx="65.05" cy="62.4" r="51.81" style="fill:none;stroke:#000;stroke-miterlimit:10;stroke-width:0.25px"/><circle cx="83.73" cy="12.6" r="0.48"/><circle cx="102.65" cy="24.8" r="0.48"/><circle cx="114.85" cy="43.73" r="0.48"/><circle cx="114.85" cy="81.08" r="0.48"/><circle cx="102.65" cy="100" r="0.48"/><circle cx="83.72" cy="112.18" r="0.48"/><circle cx="46.38" cy="112.2" r="0.48"/><circle cx="27.45" cy="100" r="0.48"/><circle cx="15.25" cy="81.08" r="0.48"/><circle cx="15.23" cy="43.72" r="0.48"/><circle cx="27.44" cy="24.79" r="0.48"/><circle cx="46.38" cy="12.6" r="0.48"/><polygon points="101.05 26.4 65.05 62.4 83.05 62.4 101.05 26.4"/><polygon points="101.05 98.4 65.05 62.4 65.05 80.4 101.05 98.4"/><polygon points="29.05 98.4 65.05 62.4 47.05 62.4 29.05 98.4"/><polygon points="29.05 26.4 65.05 62.4 65.05 44.4 29.05 26.4"/><polygon points="101.05 26.4 65.05 62.4 65.05 44.4 101.05 26.4" style="fill:#fff"/><polygon points="101.05 98.4 65.05 62.4 83.05 62.4 101.05 98.4" style="fill:#fff"/><polygon points="29.05 98.4 65.05 62.4 65.05 80.4 29.05 98.4" style="fill:#fff"/><polygon points="29.05 26.4 65.05 62.4 47.05 62.4 29.05 26.4" style="fill:#fff"/><polygon points="65.05 8.4 78.55 48.9 65.05 62.4 65.05 8.4"/><polygon points="119.05 62.4 78.55 75.9 65.05 62.4 119.05 62.4"/><polygon points="65.05 116.4 51.55 75.9 65.05 62.4 65.05 116.4"/><polygon points="11.05 62.4 51.55 48.9 65.05 62.4 11.05 62.4"/><polygon points="65.05 8.4 65.05 62.4 51.55 48.9 65.05 8.4" style="fill:#fff"/><polygon points="119.05 62.4 65.05 62.4 78.55 48.9 119.05 62.4" style="fill:#fff"/><polygon points="65.05 116.4 65.05 62.4 78.55 75.9 65.05 116.4" style="fill:#fff"/><polygon points="11.05 62.4 65.05 62.4 51.55 75.9 11.05 62.4" style="fill:#fff"/><path d="M65.05,117.19,54.85,85.78,28.49,99,41.56,72.83,10.26,62.4,41.67,52.2,28.49,25.84,54.62,38.91,65.05,7.61,75.26,39l26.35-13.18L88.55,52l31.3,10.43L88.43,72.61,101.61,99,75.48,85.9ZM54.77,85.54h0L65.05,116.4,75.34,85.54,101.05,98.4,88.23,72.68h0L119.05,62.4,88.2,52.12,101.05,26.4,75.34,39.26h0L65.05,8.4,54.77,39.26,29.05,26.4,41.91,52.12,11.05,62.4,41.91,72.69,29.05,98.4Z"/><path d="M63.7,2V5.68h-1.1V0h.86l3,3.73V0h1.1V5.68h-.9Z"/><path d="M125.75,64.32v1h-3.94V59.61h3.87v1h-2.77v1.37h2.39v.9h-2.39v1.48Z"/><path d="M66.58,120.68l-.2-.15a2.6,2.6,0,0,0-.36-.19,3.14,3.14,0,0,0-.46-.16,2,2,0,0,0-.5-.06,1.13,1.13,0,0,0-.68.17.55.55,0,0,0-.22.47.49.49,0,0,0,.08.29.73.73,0,0,0,.24.2,2,2,0,0,0,.4.16l.56.15q.42.11.76.24a2.07,2.07,0,0,1,.58.32,1.33,1.33,0,0,1,.36.46,1.53,1.53,0,0,1,.13.66,1.65,1.65,0,0,1-.17.78,1.44,1.44,0,0,1-.46.52,2,2,0,0,1-.67.29,3.37,3.37,0,0,1-.8.09,4.27,4.27,0,0,1-1.26-.19,3.91,3.91,0,0,1-1.12-.54l.49-1a1.55,1.55,0,0,0,.26.19,3.78,3.78,0,0,0,.44.23,3.51,3.51,0,0,0,.57.2,2.6,2.6,0,0,0,.64.08q.91,0,.91-.58A.48.48,0,0,0,66,123a.88.88,0,0,0-.3-.22,2.81,2.81,0,0,0-.46-.18l-.61-.18a5.16,5.16,0,0,1-.71-.24,1.87,1.87,0,0,1-.5-.31,1.17,1.17,0,0,1-.3-.42,1.45,1.45,0,0,1-.1-.56,1.75,1.75,0,0,1,.16-.77,1.54,1.54,0,0,1,.44-.56,2,2,0,0,1,.66-.34,2.74,2.74,0,0,1,.81-.12,3.14,3.14,0,0,1,1.1.19,4.09,4.09,0,0,1,.88.44Z"/><path d="M2.55,59.62h1l.64,1.88.64-1.88h1l-1,2.58L5.62,64l1.61-4.42h1.2L6.12,65.29H5.19l-1-2.38-1,2.38H2.3L0,59.61H1.18L2.8,64l.7-1.82Z"/></svg>