<svg xmlns="http://www.w3.org/2000/svg" viewBox="0 0 131.81 131.91"><title>010_2x</title><line x1="11.56" y1="65.74" x2="124.95" y2="65.74" style="fill:none;stroke:#000;stroke-miterlimit:10"/><circle cx="68.25" cy="65.74" r="51.02" style="fill:none;stroke:#000;stroke-miterlimit:10"/><line x1="68.25" y1="65.74" x2="68.25" y2="122.43" style="fill:none;stroke:#000;stroke-miterlimit:10"/><line x1="68.25" y1="65.74" x2="68.25" y2="9.04" style="fill:none;stroke:#000;stroke-miterlimit:10;stroke-width:3.5px"/><path d="M71.42,7.14H69.5l-3.11-5.4h0q.09,1.43.09,2V7.14H65.09V0H67l3.1,5.35h0q-.07-1.39-.07-2V0h1.36Z"/><path d="M131.81,69.5h-4V62.36h4v1h-2.87v1.94h2.69v1h-2.69v2.24h2.87Z"/><path d="M7.47,69.08H6.2L5,64.82q-.08-.28-.2-.8t-.14-.73q0,.31-.16.81t-.18.74L3.13,69.08H1.86L.94,65.51,0,61.94H1.19l1,4.16a18,18,0,0,1,.34,1.77q.05-.41.16-.93t.2-.83l1.16-4.17H5.23l1.19,4.19a15.69,15.69,0,0,1,.36,1.74,12.76,12.76,0,0,1,.35-1.78l1-4.15H9.33Z"/><path d="M70.56,129.87a1.8,1.8,0,0,1-.69,1.49,3,3,0,0,1-1.9.54,4.54,4.54,0,0,1-2-.38v-1.1a5.44,5.44,0,0,0,1,.36,4.4,4.4,0,0,0,1,.13,1.63,1.63,0,0,0,1-.26.86.86,0,0,0,.33-.71.89.89,0,0,0-.3-.68,4.56,4.56,0,0,0-1.25-.66,3.32,3.32,0,0,1-1.38-.9,1.91,1.91,0,0,1-.4-1.22,1.71,1.71,0,0,1,.63-1.41,2.63,2.63,0,0,1,1.7-.51,5,5,0,0,1,2,.45l-.37,1a4.45,4.45,0,0,0-1.7-.4,1.31,1.31,0,0,0-.86.25.81.81,0,0,0-.29.65.92.92,0,0,0,.12.48,1.2,1.2,0,0,0,.39.37,6.58,6.58,0,0,0,1,.46,5.25,5.25,0,0,1,1.15.61,1.79,1.79,0,0,1,.54.64A1.93,1.93,0,0,1,70.56,129.87Z"/></svg>