<svg xmlns="http://www.w3.org/2000/svg" viewBox="0 0 33.58 42.39"><title>012_1x</title><polygon points="16.79 27.72 8.29 34.1 14.66 25.6 8.29 17.09 16.79 23.47 25.29 17.09 18.92 25.6 25.29 34.1 16.79 27.72" style="stroke:#000;stroke-linecap:round;stroke-linejoin:round"/><path d="M16.79,41.79a.6.6,0,0,1-.59-.51l-2.06-13-13-2.06a.6.6,0,0,1,0-1.19l13-2.06L16.2,7.09a.6.6,0,0,1,1.19,0l2.07,15.85,13,2.06a.6.6,0,0,1,0,1.19l-13,2.06-2.06,13A.6.6,0,0,1,16.79,41.79Z"/><path d="M16.79,7.17l2.13,16.3L32.38,25.6,18.92,27.72,16.79,41.19,14.66,27.72,1.2,25.6l13.46-2.13,2.13-16.3m0-1.2A1.2,1.2,0,0,0,15.6,7l-2,15.41L1,24.41a1.2,1.2,0,0,0,0,2.37l12.6,2,2,12.6a1.2,1.2,0,0,0,2.37,0l2-12.6,12.6-2a1.2,1.2,0,0,0,0-2.37L20,22.42,18,7a1.2,1.2,0,0,0-1.19-1Z" style="fill:#fff"/><polygon points="1.2 25.6 14.66 23.47 16.79 7.17 18.92 23.47 32.38 25.6 18.92 27.72 16.79 41.19 14.66 27.72 1.2 25.6" style="fill:none;stroke:#000;stroke-linecap:round;stroke-linejoin:round"/><path d="M16.79,14.42A11.17,11.17,0,1,1,5.62,25.6,11.19,11.19,0,0,1,16.79,14.42m0-3A14.17,14.17,0,1,0,31,25.6,14.17,14.17,0,0,0,16.79,11.42Z"/><path d="M19.57.6,20.64,0l.18.18-.19,1-.57.69q-.05-.19-.15-.47T19.75.93q-.1.31-.19.67t-.18.77q-.09.41-.14.75t-.1.77l-1.27,1-.53-3.57-.88,1.8q-.25.5-.44.84a5.48,5.48,0,0,1-.37.56,2.84,2.84,0,0,1-.35.39,1.7,1.7,0,0,1-.37.26,1.73,1.73,0,0,1-.78.19,2.42,2.42,0,0,1-.69-.12A3,3,0,0,1,12.82,5a1.12,1.12,0,0,1-.3-.2.63.63,0,0,1-.09-.27L12.2,3.43l.86-.6a5.36,5.36,0,0,0,.19.64,3.33,3.33,0,0,0,.22.5,2.09,2.09,0,0,0,.27.38,1.21,1.21,0,0,0,.85.47.9.9,0,0,0,.59-.25,2.74,2.74,0,0,0,.58-.9q.27-.58.73-1.73A5.39,5.39,0,0,0,16.92.55a.31.31,0,0,0,0,0L18.06,0l.59.74q0,1.25.09,2l.35-1Q19.23,1.35,19.57.6Z"/></svg>