<svg xmlns="http://www.w3.org/2000/svg" viewBox="0 0 64.76 83.57"><title>012_2x</title><polygon points="32.38 55.44 15.37 68.2 28.13 51.19 15.37 34.18 32.38 46.94 49.39 34.18 36.63 51.19 49.39 68.2 32.38 55.44" style="stroke:#000;stroke-linecap:round;stroke-linejoin:round"/><path d="M32.38,83a.6.6,0,0,1-.59-.51L27.6,56,1.11,51.78a.6.6,0,0,1,0-1.19l26.49-4.18,4.19-32.15a.6.6,0,0,1,1.19,0l4.19,32.15L63.66,50.6a.6.6,0,0,1,0,1.19L37.16,56,33,82.47A.6.6,0,0,1,32.38,83Z"/><path d="M32.38,14.34l4.25,32.6,26.93,4.25L36.63,55.44,32.38,82.37,28.13,55.44,1.2,51.19l26.93-4.25,4.25-32.6m0-1.2a1.2,1.2,0,0,0-1.19,1L27.06,45.89,1,50a1.2,1.2,0,0,0,0,2.37l26.07,4.12L31.2,82.56a1.2,1.2,0,0,0,2.37,0l4.12-26.07,26.07-4.12a1.2,1.2,0,0,0,0-2.37l-26-4.11L33.57,14.19a1.2,1.2,0,0,0-1.19-1Z" style="fill:#fff"/><polygon points="1.2 51.19 28.13 46.94 32.38 14.34 36.63 46.94 63.56 51.19 36.63 55.44 32.38 82.37 28.13 55.44 1.2 51.19" style="fill:none;stroke:#000;stroke-linecap:round;stroke-linejoin:round"/><path d="M32.38,28.84A22.35,22.35,0,1,1,10,51.19,22.37,22.37,0,0,1,32.38,28.84m0-6A28.35,28.35,0,1,0,60.73,51.19,28.35,28.35,0,0,0,32.38,22.84Z"/><path d="M37.94,1.2,40.08,0l.36.37-.38,2L38.94,3.73q-.11-.39-.29-.94t-.34-.93q-.19.62-.38,1.34t-.36,1.55q-.17.82-.27,1.49t-.2,1.54l-2.54,2L33.48,2.67l-1.76,3.6q-.49,1-.88,1.67a11,11,0,0,1-.73,1.13,5.69,5.69,0,0,1-.71.78,3.41,3.41,0,0,1-.74.51,3.45,3.45,0,0,1-1.56.39,4.83,4.83,0,0,1-1.38-.23,6.1,6.1,0,0,1-1.28-.5,2.24,2.24,0,0,1-.59-.4,1.26,1.26,0,0,1-.18-.53l-.47-2.22,1.71-1.2a11.11,11.11,0,0,0,.38,1.28,6.87,6.87,0,0,0,.45,1,4.17,4.17,0,0,0,.55.76A2.42,2.42,0,0,0,28,9.64a1.79,1.79,0,0,0,1.18-.51,5.48,5.48,0,0,0,1.16-1.79q.53-1.16,1.45-3.46a10.77,10.77,0,0,0,.86-2.78.62.62,0,0,0,0-.09l2.28-1,1.19,1.48q.05,2.5.18,4l.7-2Q37.27,2.7,37.94,1.2Z"/></svg>