<svg xmlns="http://www.w3.org/2000/svg" viewBox="0 0 42.04 67.1"><title>011_1x</title><circle cx="19.66" cy="41.09" r="8.1" style="fill:none;stroke:#231f20;stroke-miterlimit:10;stroke-width:0.75px"/><polyline points="19.66 41.09 19.66 14.16 21.08 15.57 19.66 8.49 18.24 15.57 19.66 14.16" style="stroke:#231f20;stroke-miterlimit:10;stroke-width:0.75px"/><circle cx="19.66" cy="41.09" r="14.17" style="fill:none;stroke:#231f20;stroke-miterlimit:10;stroke-width:0.30000001192092896px"/><line x1="19.66" y1="41.09" x2="31.9" y2="41.09" style="fill:none;stroke:#231f20;stroke-linecap:square;stroke-miterlimit:10;stroke-width:0.30000001192092896px"/><polygon points="31.5 42.43 33.83 41.09 31.5 39.74 31.5 42.43" style="fill:#231f20"/><line x1="19.66" y1="41.09" x2="7.42" y2="41.09" style="fill:none;stroke:#231f20;stroke-linecap:square;stroke-miterlimit:10;stroke-width:0.30000001192092896px"/><polygon points="7.82 39.74 5.49 41.09 7.82 42.43 7.82 39.74" style="fill:#231f20"/><line x1="19.66" y1="41.09" x2="19.66" y2="58.99" style="fill:none;stroke:#231f20;stroke-linecap:square;stroke-miterlimit:10;stroke-width:0.30000001192092896px"/><polygon points="18.31 58.6 19.66 60.93 21.01 58.6 18.31 58.6" style="fill:#231f20"/><path d="M21.39,3.57a1.3,1.3,0,0,1-.05.36,1.54,1.54,0,0,1-.16.36,1.66,1.66,0,0,1-.64.61,2.16,2.16,0,0,1-.49.19,2.41,2.41,0,0,1-.6.07l-.32,0-.37-.08-.37-.12a1.68,1.68,0,0,1-.32-.16s0,0,0-.08a1.57,1.57,0,0,1,0-.17c0-.07,0-.15,0-.23s0-.18,0-.26,0-.18,0-.26a1.72,1.72,0,0,1,0-.23l.28,0a2.15,2.15,0,0,0,.22.42,1.61,1.61,0,0,0,.29.33,1.28,1.28,0,0,0,.34.21,1,1,0,0,0,.38.08,1.15,1.15,0,0,0,.34-.05.91.91,0,0,0,.29-.15.73.73,0,0,0,.2-.24.69.69,0,0,0,.08-.33.78.78,0,0,0-.11-.41,1.14,1.14,0,0,0-.28-.31,2.32,2.32,0,0,0-.39-.24l-.45-.22-.45-.23a2,2,0,0,1-.39-.28,1.27,1.27,0,0,1-.28-.37A1.07,1.07,0,0,1,18,1.29a1,1,0,0,1,.1-.41,1.3,1.3,0,0,1,.32-.42A1.8,1.8,0,0,1,19,.13,2.24,2.24,0,0,1,19.84,0l.41,0,.38.07a1.67,1.67,0,0,1,.31.11.67.67,0,0,1,.21.14s0,0,0,.07a.84.84,0,0,1,0,.13l-.07.16L21,.88,20.89,1l-.07.09-.26,0a1.22,1.22,0,0,0-.2-.31,1,1,0,0,0-.23-.2.91.91,0,0,0-.25-.11l-.23,0a1,1,0,0,0-.33.05.65.65,0,0,0-.23.14.52.52,0,0,0-.13.19.6.6,0,0,0,0,.22.53.53,0,0,0,.11.33,1.26,1.26,0,0,0,.28.27,2.87,2.87,0,0,0,.4.23l.46.23.46.25a2.19,2.19,0,0,1,.4.31,1.42,1.42,0,0,1,.28.39A1.16,1.16,0,0,1,21.39,3.57Z" style="fill:#231f20"/><path d="M42,39l-.29.07-.18.06-.1.06a.1.1,0,0,0,0,.06l-.89,4.16a.27.27,0,0,1-.09.14.64.64,0,0,1-.16.1l-.18.07-.15,0-1.33-3.54-1.12,3.2a.31.31,0,0,1-.1.14.7.7,0,0,1-.16.1l-.19.07-.18,0-1-4.48a.24.24,0,0,0-.14-.16,1.54,1.54,0,0,0-.4-.11v-.29h1.91V39L37,39a.48.48,0,0,0-.15.06.12.12,0,0,0-.05.08.26.26,0,0,0,0,.08l.67,2.86,1.14-3.42H39l1.31,3.42.63-2.89a.08.08,0,0,0,0-.08l-.12-.06-.2-.05-.25,0v-.29H42Z" style="fill:#231f20"/><path d="M3.85,42.49l0,.35q0,.19,0,.35l0,.29c0,.09,0,.15,0,.19H0v-.29a1.84,1.84,0,0,0,.4-.12c.09,0,.13-.08.13-.12V39.28s0-.07-.13-.12A1.49,1.49,0,0,0,0,39v-.29H3.44l.16.13,0,.25q0,.15,0,.31c0,.11,0,.21,0,.3a1.86,1.86,0,0,1,0,.22H3.14a1.77,1.77,0,0,0-.1-.55q-.08-.19-.22-.19H1.51v1.58H3.07l.13.14-.08.13L3,41.21l-.1.13-.09.09-.13-.1-.16-.07-.21,0H1.51V43a.2.2,0,0,0,0,.1.22.22,0,0,0,.11.08,1,1,0,0,0,.24.05l.41,0H2.7a1,1,0,0,0,.31,0A.59.59,0,0,0,3.23,43a1,1,0,0,0,.18-.25,3.25,3.25,0,0,0,.16-.39Z" style="fill:#231f20"/><path d="M17.17,67V66.7a1.13,1.13,0,0,0,.41-.11c.08,0,.13-.09.13-.13V62.63a1,1,0,0,0-.54-.29v-.29h1.19l.08,0,.08.09.12.16L21,65.68V62.59a.1.1,0,0,0,0-.06l-.09-.07-.16-.06-.26-.05v-.29h1.66v.29a1.17,1.17,0,0,0-.41.11q-.13.07-.13.13V67.1A1.67,1.67,0,0,1,21,67a.93.93,0,0,1-.33-.26l-2.39-3.3v3.07a.1.1,0,0,0,0,.06l.09.07.17.06.25.05V67Z" style="fill:#231f20"/></svg>