<svg xmlns="http://www.w3.org/2000/svg" viewBox="0 0 86.32 135.2"><title>011_2x</title><circle cx="40.55" cy="82.17" r="16.2" style="fill:none;stroke:#000;stroke-miterlimit:10;stroke-width:1.75px"/><polyline points="40.55 82.17 40.55 28.32 43.38 31.15 40.55 18.98 37.71 31.15 40.55 28.32" style="stroke:#000;stroke-miterlimit:10;stroke-width:1.75px"/><circle cx="40.55" cy="82.17" r="28.35" style="fill:none;stroke:#000;stroke-miterlimit:10;stroke-width:0.5px"/><line x1="40.55" y1="82.17" x2="64.95" y2="82.17" style="fill:none;stroke:#000;stroke-linecap:square;stroke-miterlimit:10;stroke-width:0.5px"/><polygon points="64.15 84.92 68.89 82.17 64.15 79.43 64.15 84.92"/><line x1="40.55" y1="82.17" x2="16.15" y2="82.17" style="fill:none;stroke:#000;stroke-linecap:square;stroke-miterlimit:10;stroke-width:0.5px"/><polygon points="16.95 79.43 12.2 82.17 16.95 84.92 16.95 79.43"/><line x1="40.55" y1="82.17" x2="40.55" y2="117.91" style="fill:none;stroke:#000;stroke-linecap:square;stroke-miterlimit:10;stroke-width:0.5px"/><polygon points="37.81 117.11 40.55 121.86 43.29 117.11 37.81 117.11"/><path d="M44,7.13a2.6,2.6,0,0,1-.11.72,3.08,3.08,0,0,1-.32.72A3.32,3.32,0,0,1,42.3,9.8a4.32,4.32,0,0,1-1,.38,4.82,4.82,0,0,1-1.21.14,4.43,4.43,0,0,1-.64-.05,7.21,7.21,0,0,1-.74-.15A6.7,6.7,0,0,1,38,9.87a3.37,3.37,0,0,1-.64-.32s0-.06-.06-.15a3.14,3.14,0,0,1,0-.34c0-.14,0-.29,0-.47s0-.35,0-.53,0-.35.05-.52a3.44,3.44,0,0,1,.09-.45l.55,0a4.3,4.3,0,0,0,.44.84,3.23,3.23,0,0,0,.58.66,2.57,2.57,0,0,0,.69.43,2,2,0,0,0,.77.15,2.3,2.3,0,0,0,.68-.1,1.82,1.82,0,0,0,.58-.29,1.45,1.45,0,0,0,.4-.48,1.38,1.38,0,0,0,.15-.66A1.56,1.56,0,0,0,42,6.84a2.28,2.28,0,0,0-.56-.62,4.64,4.64,0,0,0-.79-.49l-.91-.43q-.46-.22-.91-.45a4,4,0,0,1-.79-.55,2.54,2.54,0,0,1-.56-.73,2.15,2.15,0,0,1-.21-1,2,2,0,0,1,.21-.82,2.6,2.6,0,0,1,.64-.84A3.59,3.59,0,0,1,39.28.27,4.47,4.47,0,0,1,40.91,0a6.25,6.25,0,0,1,.83.05,6.06,6.06,0,0,1,.76.15,3.35,3.35,0,0,1,.62.23,1.35,1.35,0,0,1,.41.29s0,.07,0,.14a1.69,1.69,0,0,1-.07.26,3.09,3.09,0,0,1-.13.32l-.17.33A3.23,3.23,0,0,1,43,2a1,1,0,0,1-.15.18l-.52,0a2.45,2.45,0,0,0-.39-.61,2.09,2.09,0,0,0-.47-.39A1.83,1.83,0,0,0,41,1,1.93,1.93,0,0,0,40.51.9a2,2,0,0,0-.67.1,1.3,1.3,0,0,0-.46.27,1,1,0,0,0-.26.39,1.21,1.21,0,0,0-.08.43,1.05,1.05,0,0,0,.21.65,2.52,2.52,0,0,0,.56.53,5.74,5.74,0,0,0,.79.46l.91.45q.47.23.91.51a4.37,4.37,0,0,1,.79.62,2.85,2.85,0,0,1,.56.79A2.32,2.32,0,0,1,44,7.13Z" style="fill:#231f20"/><path d="M86.32,77.92l-.57.13-.36.12a.71.71,0,0,0-.19.11.19.19,0,0,0-.07.12l-1.79,8.33a.55.55,0,0,1-.18.29,1.28,1.28,0,0,1-.31.2,2.38,2.38,0,0,1-.36.13l-.3.07-2.66-7.09-2.24,6.39a.61.61,0,0,1-.2.28,1.41,1.41,0,0,1-.32.2,2.34,2.34,0,0,1-.37.13l-.35.08-2-9a.48.48,0,0,0-.28-.32,3.08,3.08,0,0,0-.8-.23v-.57h3.82v.57a3.82,3.82,0,0,0-.59.1,1,1,0,0,0-.3.13.24.24,0,0,0-.11.15.51.51,0,0,0,0,.17l1.34,5.72,2.28-6.84h.78l2.62,6.84L84,78.41a.17.17,0,0,0-.07-.16.79.79,0,0,0-.25-.12l-.39-.1-.49-.09v-.57h3.48Z" style="fill:#231f20"/><path d="M7.93,85c0,.22,0,.46-.07.71s-.05.48-.09.7-.06.42-.09.59-.05.3-.07.38H.23v-.57c.35-.07-.38-.15-.2-.24s1.27-.17,1.27-.24V78.57c0-.06-.08-.14-.25-.23a3,3,0,0,0-.82-.25v-.57H7.11l.31.25c0,.14,0,.3,0,.51s0,.41-.08.63-.06.42-.1.61a3.72,3.72,0,0,1-.1.43H6.52a3.53,3.53,0,0,0-.2-1.11q-.16-.38-.45-.38H3.25v3.16H6.36l.26.27-.15.25-.19.29-.2.26a1,1,0,0,1-.18.18,1.2,1.2,0,0,0-.25-.2,1.56,1.56,0,0,0-.31-.13,2.11,2.11,0,0,0-.41-.08l-.57,0H3.25v3.48a.39.39,0,0,0,.05.21.44.44,0,0,0,.23.16,2,2,0,0,0,.48.1,7.74,7.74,0,0,0,.83,0h.77a1.92,1.92,0,0,0,.61-.09,1.17,1.17,0,0,0,.45-.28,2,2,0,0,0,.36-.5,6.51,6.51,0,0,0,.32-.77Z" style="fill:#231f20"/><path d="M35.58,135v-.57a2.27,2.27,0,0,0,.82-.22c.17-.1.25-.19.25-.26v-7.66a2.06,2.06,0,0,0-1.07-.57v-.57h2.18l.19,0a.38.38,0,0,1,.15.08.93.93,0,0,1,.17.18l.24.32,4.78,6.63v-6.18a.2.2,0,0,0-.05-.11.52.52,0,0,0-.17-.13,1.69,1.69,0,0,0-.33-.13,3.59,3.59,0,0,0-.52-.11v-.57h3.32v.57a2.34,2.34,0,0,0-.82.23q-.26.15-.26.26v9a3.33,3.33,0,0,1-1.2-.29,1.85,1.85,0,0,1-.66-.52l-4.77-6.61v6.14a.2.2,0,0,0,.05.11.61.61,0,0,0,.18.13l.33.13a3.33,3.33,0,0,0,.51.1V135Z" style="fill:#231f20"/></svg>