<svg xmlns="http://www.w3.org/2000/svg" viewBox="0 0 14.13 74.13"><title>002_0.5</title><path d="M6,0V72c0,.82,2.12,1.59,2.12,2.12v-72C8.13,1.31,6,.54,6,0Z"/><path d="M7.16,73l-6-6A10.89,10.89,0,0,0,0,66c-.08.22.87,1.06,1,1.16l6,6a10.89,10.89,0,0,0,1.16,1c.08-.22-.87-1.06-1-1.16Z"/><path d="M0,66v6c0,.35.73.93,1,1.16a14,14,0,0,1,1.16,1v-6c0-.35-.73-.93-1-1.16A14,14,0,0,1,0,66Z"/><path d="M13.16,7l-6-6A10.89,10.89,0,0,0,6,0c-.08.22.87,1.06,1,1.16l6,6a10.89,10.89,0,0,0,1.16,1c.08-.22-.87-1.06-1-1.16Z"/></svg>