<svg xmlns="http://www.w3.org/2000/svg" viewBox="0 0 27.2 147.21"><title>002_1.0</title><path d="M12,0V144c0,1.23,3.18,2.38,3.18,3.18V3.19C15.19,2,12,.81,12,0Z"/><path d="M13.75,145.46l-12-12C1.61,133.32.18,131.85,0,132s1.41,1.69,1.45,1.73l12,12c.14.14,1.57,1.61,1.73,1.45s-1.41-1.69-1.45-1.73Z"/><path d="M0,132v12c0,.53,1.1,1.39,1.45,1.73a21,21,0,0,1,1.73,1.45v-12c0-.53-1.1-1.39-1.45-1.73A21,21,0,0,1,0,132Z"/><path d="M25.75,13.46l-12-12C13.61,1.32,12.18-.15,12,0s1.41,1.69,1.45,1.73l12,12c.14.14,1.57,1.61,1.73,1.45s-1.41-1.69-1.45-1.73Z"/></svg>